<svg height="512" viewBox="0 0 64 64" width="512" xmlns="http://www.w3.org/2000/svg"><path d="m53 20v33a2.006 2.006 0 0 1 -2 2h-46a2.006 2.006 0 0 1 -2-2v-33z" fill="#ffb655"/><path d="m39.39 55h-4.02a18.014 18.014 0 0 1 -4.37-11.75v-9.25l2-.86v8.11a18 18 0 0 0 6.39 13.75z" fill="#ffa733"/><path d="m33 12h20v8h-20z" fill="#ff9811"/><path d="m47.59 3.89 5.41 8.11h-50l5.41-8.11a1.981 1.981 0 0 1 1.66-.89h35.86a1.981 1.981 0 0 1 1.66.89z" fill="#ffb655"/><path d="m3 12h20v8h-20z" fill="#ff9811"/><path d="m33 20v8l-5-4-5 4v-8-8h10z" fill="#e6e7e8"/><path d="m61 32v9.25a18.039 18.039 0 0 1 -6.88 14.16l-7.12 5.59-7.12-5.59a6.258 6.258 0 0 1 -.49-.41 18 18 0 0 1 -6.39-13.75v-9.25l14-6 6 2.57z" fill="#ff5023"/><path d="m53 32.92-6-2.57-10 4.29v6.61a13.911 13.911 0 0 0 5.35 11.01l3.49 2.74 1.16.91 1.16-.91 3.49-2.74a14.19 14.19 0 0 0 1.35-1.21 13.893 13.893 0 0 0 4-9.8v-6.61z" fill="#ffd422"/><path d="m61.394 31.081-7.394-3.169v-15.912a1.006 1.006 0 0 0 -.168-.555l-5.408-8.107a2.982 2.982 0 0 0 -2.494-1.338h-35.86a2.979 2.979 0 0 0 -2.492 1.335l-5.41 8.11a1.006 1.006 0 0 0 -.168.555v41a3 3 0 0 0 3 3h34.031c.077.063.151.13.23.191l7.121 5.595a1 1 0 0 0 1.236 0l7.121-5.595a18.89 18.89 0 0 0 7.261-14.94v-9.251a1 1 0 0 0 -.606-.919zm-39.394-12.081h-18v-6h18zm2-6h8v12.919l-3.375-2.7a1 1 0 0 0 -1.25 0l-3.375 2.7zm10 0h18v6h-18zm-24.756-8.559a.987.987 0 0 1 .826-.441h35.86a.988.988 0 0 1 .828.444l4.373 6.556h-46.262zm-5.244 48.559v-32h18v7a1 1 0 0 0 1.625.781l4.375-3.501 4.375 3.5a1 1 0 0 0 1.625-.78v-7h18v6.055l-4.606-1.974a1.007 1.007 0 0 0 -.788 0l-14 6a1 1 0 0 0 -.606.919v9.251a18.874 18.874 0 0 0 4.907 12.749h-31.907a1 1 0 0 1 -1-1zm56-11.749a16.9 16.9 0 0 1 -6.5 13.368l-6.5 5.11-6.5-5.11a16.9 16.9 0 0 1 -6.5-13.368v-8.592l13-5.571 13 5.571z"/><path d="m46.606 29.433-10 4.286a1 1 0 0 0 -.606.919v6.614a14.915 14.915 0 0 0 5.731 11.794l4.651 3.654a1 1 0 0 0 1.236 0l4.65-3.653a14.913 14.913 0 0 0 5.732-11.795v-6.614a1 1 0 0 0 -.606-.919l-10-4.286a1 1 0 0 0 -.788 0zm9.394 5.867v5.955a12.925 12.925 0 0 1 -4.969 10.222l-4.031 3.165-4.032-3.168a12.927 12.927 0 0 1 -4.968-10.222v-5.952l9-3.858z"/><path d="m43.707 41.293-1.414 1.414 3 3a1 1 0 0 0 1.414 0l6-6-1.414-1.414-5.293 5.293z"/></svg>